<svg width="23" height="23" viewBox="0 0 23 23" fill="none" xmlns="http://www.w3.org/2000/svg">
    <circle cx="11.5" cy="11.5" r="11.5" fill="#DC1800"/>
    <path d="M16.2079 9.0207L17.1054 5.16327H6.57141V17.909H11.3254V14.9622L15.18 14.9969L16.0784 11.1395H11.3254V9.0207H16.2079ZM16.3159 5.79037L15.7104 8.3936H11.3254V5.79037H16.3159ZM10.6983 5.79037V7.90449L8.17108 5.79037H10.6983ZM7.87443 11.7666H10.6983V14.0769L7.87443 11.7666ZM7.20227 17.2819V12.2322L10.702 14.9876V17.2819H7.20227ZM15.2926 11.7666L14.6862 14.3698H11.3254V11.7666H15.2926ZM7.29615 11.1395H7.20227V5.79413L10.702 8.72217V11.1395H7.29615Z" fill="white"/>
</svg>
